<?xml version="1.0" standalone="no"?>
<!DOCTYPE svg PUBLIC "-//W3C//DTD SVG 20010904//EN"
 "http://www.w3.org/TR/2001/REC-SVG-20010904/DTD/svg10.dtd">
<svg version="1.0" xmlns="http://www.w3.org/2000/svg"
 width="231.000000pt" height="88.000000pt" viewBox="0 0 231.000000 88.000000"
 preserveAspectRatio="xMidYMid meet">

<g transform="translate(0.000000,88.000000) scale(0.100000,-0.100000)"
fill="#000000" stroke="none">
<path d="M292 733 c-5 -16 -48 -126 -95 -245 l-85 -218 32 0 c30 0 33 4 60 75
l29 75 97 0 97 0 28 -75 c27 -74 28 -75 62 -75 19 0 32 3 30 8 -3 4 -44 108
-92 232 -48 124 -89 231 -92 238 -3 6 -18 12 -33 12 -22 0 -30 -6 -38 -27z
m71 -136 c16 -45 31 -90 34 -99 5 -16 -3 -18 -67 -18 -64 0 -72 2 -67 18 20
64 63 181 67 182 3 0 18 -37 33 -83z"/>
<path d="M655 741 c-84 -39 -125 -114 -125 -229 0 -127 49 -209 142 -237 61
-18 90 -19 158 -4 43 9 50 14 50 34 0 23 -1 24 -87 18 -81 -5 -91 -3 -122 18
-56 39 -75 82 -76 169 0 98 27 153 88 181 49 22 81 23 144 8 46 -12 62 -5 63
28 0 35 -168 45 -235 14z"/>
<path d="M920 515 l0 -245 31 0 32 0 -5 210 c-3 116 -4 210 -3 210 1 0 37 -94
80 -210 74 -200 79 -210 104 -210 25 0 30 10 106 210 43 116 79 210 80 210 1
0 0 -94 -3 -210 l-5 -210 37 0 36 0 -2 243 -3 242 -42 3 c-50 4 -41 19 -128
-211 -37 -97 -71 -177 -74 -177 -3 0 -26 53 -50 118 -24 64 -57 152 -73 195
l-30 77 -44 0 -44 0 0 -245z"/>
<path d="M1477 753 c-4 -3 -7 -114 -7 -245 l0 -238 38 0 37 0 133 201 132 200
0 -200 0 -201 30 0 30 0 0 218 0 217 80 -3 80 -4 0 -214 0 -214 30 0 30 0 0
215 0 215 75 0 75 0 0 30 0 31 -221 -2 -220 -1 -135 -201 -134 -202 0 203 0
202 -23 0 c-13 0 -27 -3 -30 -7z"/>
<path d="M565 168 c3 -15 10 -40 16 -55 l11 -28 11 23 c5 12 13 22 17 22 4 0
12 -10 17 -22 10 -22 11 -21 27 16 22 52 19 81 -3 31 -17 -37 -18 -38 -25 -17
-4 12 -11 22 -16 22 -5 0 -12 -10 -16 -22 -7 -21 -8 -20 -26 17 -13 30 -17 33
-13 13z"/>
<path d="M950 139 l0 -50 33 3 c28 3 32 6 32 33 0 23 -5 31 -22 33 -13 2 -23
10 -23 18 0 8 -4 14 -10 14 -5 0 -10 -23 -10 -51z m55 -14 c0 -28 -29 -25 -33
3 -3 19 0 23 15 20 10 -2 18 -12 18 -23z"/>
<path d="M1387 183 c-4 -3 -7 -26 -7 -50 0 -40 2 -43 28 -43 39 0 55 14 55 46
0 39 -52 71 -76 47z m60 -29 c8 -20 -8 -48 -31 -52 -12 -3 -16 4 -16 32 0 30
4 36 20 36 11 0 23 -7 27 -16z"/>
<path d="M783 144 c-3 -9 -2 -24 4 -33 11 -18 53 -28 53 -13 0 6 -9 8 -20 5
-11 -3 -20 0 -20 6 0 6 8 11 18 11 24 0 32 8 25 26 -7 19 -52 18 -60 -2z m47
-4 c0 -5 -7 -10 -15 -10 -8 0 -15 5 -15 10 0 6 7 10 15 10 8 0 15 -4 15 -10z"/>
<path d="M1574 146 c-15 -38 22 -74 49 -47 7 7 4 8 -10 5 -12 -3 -24 -1 -27 5
-5 7 3 11 19 11 20 0 26 4 23 18 -4 22 -46 29 -54 8z m36 -6 c0 -5 -7 -10 -15
-10 -8 0 -15 5 -15 10 0 6 7 10 15 10 8 0 15 -4 15 -10z"/>
<path d="M1746 128 c9 -18 18 -35 20 -36 3 -5 34 54 34 65 0 4 -9 -3 -19 -16
l-19 -24 -6 21 c-4 12 -12 22 -17 22 -5 0 -2 -15 7 -32z"/>
</g>
</svg>
